# xmcd
#
# Track frame offsets: 
#        150
#        18844
#        36156
#        50587
#        62864
#        76613
#        90283
#        104807
#        119949
#        136133
#        150035
#        165773
#
# Disc length: 2408 seconds
#
# Revision: 0
# Processed by: cddbd v1.5.1PL2 Copyright (c) Steve Scherf et al.
# Submitted via: ExactAudioCopy v0.95b3
#
DISCID=8809660c
DTITLE=Charin Nuntanakorn and Orawee Sujjanon - Koo kieng - Vol 3
DYEAR=2004
DGENRE=Country
TTITLE0=Tai lom ma lu lee
TTITLE1=Pong jai ruk
TTITLE2=Dum nuen sai
TTITLE3=Ruk ther sa-mer
TTITLE4=Dok fah ruang
TTITLE5=Pra jun wan pen
TTITLE6=Aoy jai
TTITLE7=Porn prom
TTITLE8=Kor pen jun
TTITLE9=Krung thep ra tree
TTITLE10=Dao pra dub fah
TTITLE11=Tarn nam ruk
EXTD=
EXTT0=
EXTT1=
EXTT2=
EXTT3=
EXTT4=
EXTT5=
EXTT6=
EXTT7=
EXTT8=
EXTT9=
EXTT10=
EXTT11=
PLAYORDER=
